<?xml version="1.0" encoding="UTF-8"?>
<svg id="Layer_1" xmlns="http://www.w3.org/2000/svg" version="1.1" viewBox="0 0 674.6 309.8">
  <!-- Generator: Adobe Illustrator 29.1.0, SVG Export Plug-In . SVG Version: 2.1.0 Build 142)  -->
  <defs>
    <style>
      .st0 {
        fill: #e02828;
      }

      .st1 {
        fill: #fff;
      }
    </style>
  </defs>
  <g id="Layer_2">
    <path class="st0" d="M623.7,113.9c-43.5,6.9-144,18.7-169.1,27.9-5.6,2.1-12.4,5.3-19.9,9.4-16.6,38.2-54.7,64.9-99,64.9s-82.4-26.7-99-64.9c-7.5-4.1-14.3-7.3-19.9-9.4-25.1-9.2-125.7-21-169.1-27.9-6.7-1.1-6.7-10.7,0-11.8,43.5-6.9,144-18.7,169.1-27.9,5.6-2.1,12.4-5.3,19.9-9.3C253.3,26.7,291.3,0,335.7,0s82.4,26.7,99,64.9c7.5,4,14.3,7.3,19.9,9.3,25.1,9.2,125.6,21,169.1,27.9,6.7,1.1,6.7,10.7,0,11.8Z"/>
    <path class="st1" d="M335.7,17.3c-50.1,0-90.7,40.6-90.7,90.7s40.6,90.7,90.7,90.7,90.7-40.6,90.7-90.7-40.6-90.7-90.7-90.7ZM335.7,180.3c-39.9,0-72.3-32.4-72.3-72.3s32.4-72.3,72.3-72.3,72.3,32.4,72.3,72.3-32.4,72.3-72.3,72.3Z"/>
    <path class="st1" d="M315.8,123.8l-10.4,27.2h-22.7l38.6-96.1h28l39.1,96.1h-23.6l-10.9-27.2h-38.2.1ZM350.3,110.6l-9.5-23.7c-2.3-5.8-4.3-12.4-6.1-18h-.4c-1.8,5.6-3.6,12.3-5.7,18l-9.3,23.7h31Z"/>
    <path class="st0" d="M46.5,265.3h-25.4L.8,309.3h22.4l2.1-4.9h17l2.1,4.9h22.4s-20.3-44-20.3-44ZM28.7,293.9l5.1-14,5.1,14h-10.2Z"/>
    <path class="st0" d="M125.6,265.3s.2,16.5,0,30.2c-.3,18.4-55.2,18.3-54.9,0,.2-13.8,0-30.2,0-30.2h21.9v28.2s0,1.9,5.6,1.9,5.5-1.9,5.5-1.9v-28.2h21.9Z"/>
    <polygon class="st0" points="183 265.3 183 279.8 171 279.8 171 309.3 149 309.3 149 279.8 137 279.8 137 265.3 183 265.3"/>
    <path class="st0" d="M223.3,265.3c-18.2,0-33,9.8-33,22s14.8,22,33,22,33-9.9,33-22-14.8-22-33-22h0ZM223.3,296c-6.3,0-11.3-3.6-11.3-8.1s5.1-8.1,11.3-8.1,11.3,3.6,11.3,8.1-5.1,8.1-11.3,8.1Z"/>
    <path class="st0" d="M383.8,265.3c-18.2,0-33,9.8-33,22s14.8,22,33,22,33-9.9,33-22-14.8-22-33-22ZM383.8,296c-6.3,0-11.3-3.6-11.3-8.1s5.1-8.1,11.3-8.1,11.3,3.6,11.3,8.1-5.1,8.1-11.3,8.1Z"/>
    <path class="st0" d="M569.8,265.3c-18.2,0-33,9.8-33,22s14.8,22,33,22,33-9.9,33-22-14.8-22-33-22ZM569.8,296c-6.3,0-11.3-3.6-11.3-8.1s5.1-8.1,11.3-8.1,11.3,3.6,11.3,8.1-5.1,8.1-11.3,8.1Z"/>
    <polygon class="st0" points="345.4 309.3 325.1 309.3 319.6 286.3 309.4 309.3 297.4 309.3 287.2 286.3 281.7 309.3 261.4 309.3 273.2 265.3 293.7 265.3 303.4 288.8 313.1 265.3 333.6 265.3 345.4 309.3"/>
    <path class="st0" d="M469.2,286.9c4-.5,7.6-4.9,7.4-11.2-.2-5.9-4.6-9.7-16.1-10.3h-33.7v44h37.2c7.2,0,15.8-4.1,15.8-11.5s-1.9-8.6-10.7-11h.1ZM447.3,275h7.3s2.4,1.1,2.4,3.8-2.4,3.8-2.4,3.8h-7.3v-7.7h0ZM455.7,299.2h-8.4v-7.7h8.4s3,1,3,3.8-3,3.8-3,3.8h0Z"/>
    <polygon class="st0" points="488.2 265.3 488.2 309.3 528.2 309.3 528.2 294.8 509.6 294.8 509.6 265.3 488.2 265.3"/>
    <polygon class="st0" points="673.5 309.3 648.4 309.3 639.5 297.9 630.7 309.3 605.5 309.3 626.3 285.4 608.7 265.3 633.2 265.3 639.5 274.1 645.9 265.3 670.4 265.3 652.8 285.4 652.8 285.4 673.5 309.3"/>
  </g>
</svg>